<svg width="32" height="32" viewbox="0 0 32 32" xmlns="http://www.w3.org/2000/svg">
  <path d="M25.3333 4H6.66667C5.2 4 4 5.2 4 6.66667V25.3333C4 26.8 5.2 28 6.66667 28H25.3333C26.8 28 28 26.8 28 25.3333V6.66667C28 5.2 26.8 4 25.3333 4ZM14.28 21.72C14.1566 21.8436 14.0101 21.9417 13.8488 22.0086C13.6875 22.0755 13.5146 22.1099 13.34 22.1099C13.1654 22.1099 12.9925 22.0755 12.8312 22.0086C12.6699 21.9417 12.5234 21.8436 12.4 21.72L7.61333 16.9333C7.48989 16.8099 7.39197 16.6633 7.32516 16.5021C7.25836 16.3408 7.22397 16.1679 7.22397 15.9933C7.22397 15.8188 7.25836 15.6459 7.32516 15.4846C7.39197 15.3233 7.48989 15.1768 7.61333 15.0533C7.73678 14.9299 7.88332 14.832 8.04461 14.7652C8.20589 14.6984 8.37876 14.664 8.55333 14.664C8.72791 14.664 8.90077 14.6984 9.06206 14.7652C9.22334 14.832 9.36989 14.9299 9.49333 15.0533L13.3333 18.8933L22.5067 9.72C22.756 9.4707 23.0941 9.33064 23.4467 9.33064C23.7992 9.33064 24.1374 9.4707 24.3867 9.72C24.636 9.9693 24.776 10.3074 24.776 10.66C24.776 11.0126 24.636 11.3507 24.3867 11.6L14.28 21.72Z"></path>
</svg>
