<svg width="24" height="24" viewBox="0 0 24 24" xmlns="http://www.w3.org/2000/svg">
<g id="ic_lock">
<g id="icon">
<path id="Lock" fill-rule="evenodd" clip-rule="evenodd" d="M16.2857 7.36364V9.98182C17.2286 9.98182 18 10.7673 18 11.7273V18.7091C18 19.6691 17.2286 20.4545 16.2857 20.4545H7.71429C6.77143 20.4545 6 19.6691 6 18.7091V11.7273C6 10.7673 6.77143 9.98182 7.71429 9.98182V7.36364C7.71429 4.95491 9.63429 3 12 3C14.3657 3 16.2857 4.95491 16.2857 7.36364ZM9.42857 9.98182H14.5714V7.36364C14.5714 5.91491 13.4229 4.74545 12 4.74545C10.5771 4.74545 9.42857 5.91491 9.42857 7.36364V9.98182Z"/>
</g>
</g>
</svg>
