<svg width="24" height="24" viewBox="0 0 24 24" fill="none" xmlns="http://www.w3.org/2000/svg">
<g id="ic_success">
<path id="circle" fill-rule="evenodd" clip-rule="evenodd" d="M12 20C16.4183 20 20 16.4183 20 12C20 7.58172 16.4183 4 12 4C7.58172 4 4 7.58172 4 12C4 16.4183 7.58172 20 12 20Z" fill="var(--tse-constellation-icon-background-ic_success)" />
<path id="check" fill-rule="evenodd" clip-rule="evenodd" d="M14.2191 9.37531C14.5641 8.94405 15.1934 8.87413 15.6247 9.21914C16.056 9.56415 16.1259 10.1934 15.7809 10.6247L11.7809 15.6247C11.4085 16.0901 10.7143 16.1286 10.2929 15.7071L8.29289 13.7071C7.90237 13.3166 7.90237 12.6834 8.29289 12.2929C8.68342 11.9024 9.31658 11.9024 9.70711 12.2929L10.9171 13.5029L14.2191 9.37531Z" fill="var(--tse-constellation-icon-foreground-ic_success)" />
</g>
</svg>
